<svg id="Layer_1" data-name="Layer 1" xmlns="http://www.w3.org/2000/svg" xmlns:xlink="http://www.w3.org/1999/xlink" viewBox="0 0 389 235.26"><defs><style>.cls-1{fill:none;}.cls-2{clip-path:url(#clip-path);}.cls-3{fill:#ff9a9e;}.cls-4{fill:#ff9c9f;}.cls-5{fill:#ff9da0;}.cls-6{fill:#ff9fa1;}.cls-7{fill:#fea0a3;}.cls-8{fill:#fea2a4;}.cls-9{fill:#fea4a5;}.cls-10{fill:#fea5a6;}.cls-11{fill:#fea7a7;}.cls-12{fill:#fea8a8;}.cls-13{fill:#feaaa9;}.cls-14{fill:#fdabaa;}.cls-15{fill:#fdacab;}.cls-16{fill:#fdaeac;}.cls-17{fill:#fdafad;}.cls-18{fill:#fdb1ae;}.cls-19{fill:#fdb2af;}.cls-20{fill:#fdb3b0;}.cls-21{fill:#fdb4b1;}.cls-22{fill:#fcb6b2;}.cls-23{fill:#fcb7b2;}.cls-24{fill:#fcb8b3;}.cls-25{fill:#fcb9b4;}.cls-26{fill:#fcbbb5;}.cls-27{fill:#fcbcb6;}.cls-28{fill:#fcbdb7;}.cls-29{fill:#fcbeb7;}.cls-30{fill:#fcbfb8;}.cls-31{fill:#fbc0b9;}.cls-32{fill:#fbc1ba;}.cls-33{fill:#fbc2ba;}.cls-34{fill:#fbc3bb;}.cls-35{fill:#fbc4bc;}.cls-36{fill:#fbc5bc;}.cls-37{fill:#fbc6bd;}.cls-38{fill:#fbc7bd;}.cls-39{fill:#fbc7be;}.cls-40{fill:#fbc8bf;}.cls-41{fill:#fbc9bf;}.cls-42{fill:#fbcac0;}.cls-43{fill:#facbc1;}.cls-44{fill:#faccc1;}.cls-45{fill:#facdc2;}.cls-46{fill:#facec3;}.cls-47{fill:#facfc3;}.cls-48{fill:#facfc4;}.cls-49{fill:#fad0c4;}.cls-50{clip-path:url(#clip-path-2);}.cls-51{fill:#fff;}.cls-52{fill:#fffefd;}.cls-53{fill:#fffdfc;}.cls-54{fill:#fffbfa;}.cls-55{fill:#fefaf9;}.cls-56{fill:#fef9f8;}.cls-57{fill:#fef8f6;}.cls-58{fill:#fef7f5;}.cls-59{fill:#fef6f3;}.cls-60{fill:#fef4f2;}.cls-61{fill:#fef3f0;}.cls-62{fill:#fef2ef;}.cls-63{fill:#fef1ee;}.cls-64{fill:#fdf0ec;}.cls-65{fill:#fdefeb;}.cls-66{fill:#fdeeea;}.cls-67{fill:#fdede8;}.cls-68{fill:#fdece7;}.cls-69{fill:#fdebe6;}.cls-70{fill:#fdeae5;}.cls-71{fill:#fde9e3;}.cls-72{fill:#fde8e2;}.cls-73{fill:#fce7e1;}.cls-74{fill:#fce6e0;}.cls-75{fill:#fce5de;}.cls-76{fill:#fce4dd;}.cls-77{fill:#fce3dc;}.cls-78{fill:#fce2db;}.cls-79{fill:#fce1da;}.cls-80{fill:#fce1d9;}.cls-81{fill:#fce0d8;}.cls-82{fill:#fcdfd7;}.cls-83{fill:#fcded6;}.cls-84{fill:#fbddd5;}.cls-85{fill:#fbddd4;}.cls-86{fill:#fbdcd3;}.cls-87{fill:#fbdbd2;}.cls-88{fill:#fbdad1;}.cls-89{fill:#fbdad0;}.cls-90{fill:#fbd9cf;}.cls-91{fill:#fbd8ce;}.cls-92{fill:#fbd7cd;}.cls-93{fill:#fbd6cc;}.cls-94{fill:#fbd6cb;}.cls-95{fill:#fbd5ca;}.cls-96{fill:#fad4ca;}.cls-97{fill:#fad4c9;}.cls-98{fill:#fad3c8;}.cls-99{fill:#fad2c7;}.cls-100{fill:#fad2c6;}.cls-101{fill:#fad1c5;}.cls-102{isolation:isolate;}.cls-103{clip-path:url(#clip-path-3);}.cls-104{fill:#54496d;}.cls-105{fill:#564b70;}.cls-106{fill:#514669;}.cls-107{clip-path:url(#clip-path-4);}.cls-108{fill:#9d89cc;}.cls-109{clip-path:url(#clip-path-5);}.cls-110{clip-path:url(#clip-path-6);}.cls-111{clip-path:url(#clip-path-7);}.cls-112{clip-path:url(#clip-path-8);}.cls-113{clip-path:url(#clip-path-9);}.cls-114{fill:#3d3135;}.cls-115{fill:#392e32;}.cls-116{fill:#887070;}.cls-117{clip-path:url(#clip-path-10);}.cls-118{fill:#856d6d;}.cls-119{clip-path:url(#clip-path-11);}.cls-120{fill:#3b2f33;}.cls-121{clip-path:url(#clip-path-12);}.cls-122{clip-path:url(#clip-path-13);}.cls-123{clip-path:url(#clip-path-14);}.cls-124{fill:#f9cdcd;}.cls-125{clip-path:url(#clip-path-15);}.cls-126{fill:#6f5961;}.cls-127{clip-path:url(#clip-path-16);}.cls-128{clip-path:url(#clip-path-17);}.cls-129{clip-path:url(#clip-path-18);}.cls-130{clip-path:url(#clip-path-19);}.cls-131{clip-path:url(#clip-path-20);}.cls-132{clip-path:url(#clip-path-21);}.cls-133{clip-path:url(#clip-path-22);}.cls-134{clip-path:url(#clip-path-23);}.cls-135{clip-path:url(#clip-path-24);}.cls-136{clip-path:url(#clip-path-25);}.cls-137{clip-path:url(#clip-path-26);}.cls-138{clip-path:url(#clip-path-27);}.cls-139{clip-path:url(#clip-path-28);}.cls-140{clip-path:url(#clip-path-29);}.cls-141{clip-path:url(#clip-path-30);}.cls-142{fill:#3e3136;}.cls-143{fill:#8a7272;}.cls-144{fill:#836c6c;}.cls-145{fill:#806969;}.cls-146{clip-path:url(#clip-path-31);}.cls-147{clip-path:url(#clip-path-32);}.cls-148{clip-path:url(#clip-path-33);}.cls-149{clip-path:url(#clip-path-34);}.cls-150{clip-path:url(#clip-path-35);}.cls-151{clip-path:url(#clip-path-36);}.cls-152{clip-path:url(#clip-path-37);}.cls-153{clip-path:url(#clip-path-38);}.cls-154{clip-path:url(#clip-path-39);}.cls-155{clip-path:url(#clip-path-40);}.cls-156{clip-path:url(#clip-path-41);}.cls-157{clip-path:url(#clip-path-42);}.cls-158{clip-path:url(#clip-path-43);}.cls-159{clip-path:url(#clip-path-44);}.cls-160{clip-path:url(#clip-path-45);}.cls-161{clip-path:url(#clip-path-46);}.cls-162{clip-path:url(#clip-path-47);}.cls-163{clip-path:url(#clip-path-48);}.cls-164{clip-path:url(#clip-path-49);}.cls-165{clip-path:url(#clip-path-50);}.cls-166{clip-path:url(#clip-path-51);}.cls-167{fill:#3d3035;}.cls-168{fill:#3c3034;}.cls-169{clip-path:url(#clip-path-52);}.cls-170{clip-path:url(#clip-path-53);}.cls-171{clip-path:url(#clip-path-54);}.cls-172{clip-path:url(#clip-path-55);}.cls-173{clip-path:url(#clip-path-56);}.cls-174{clip-path:url(#clip-path-57);}</style><clipPath id="clip-path" transform="translate(-231 -300.37)"><rect class="cls-1" x="233.06" y="302.44" width="384.87" height="231.13" rx="20.79"/></clipPath><clipPath id="clip-path-2" transform="translate(-231 -300.37)"><path class="cls-1" d="M596.48,535.63h-342A23.55,23.55,0,0,1,231,512.11V323.89a23.55,23.55,0,0,1,23.52-23.52h342A23.55,23.55,0,0,1,620,323.89V512.11A23.55,23.55,0,0,1,596.48,535.63Zm-342-231.13a19.41,19.41,0,0,0-19.39,19.39V512.11a19.41,19.41,0,0,0,19.39,19.39h342a19.41,19.41,0,0,0,19.39-19.39V323.89a19.41,19.41,0,0,0-19.39-19.39Z"/></clipPath><clipPath id="clip-path-3" transform="translate(-231 -300.37)"><path class="cls-1" d="M422.1,354.25l25.58-8.78a2.12,2.12,0,0,1,.77-.1,1.92,1.92,0,0,1,1.7.94,7.55,7.55,0,0,1,.62,3.1l-25.58,8.79a7.55,7.55,0,0,0-.62-3.1,1.92,1.92,0,0,0-1.7-.94A2.12,2.12,0,0,0,422.1,354.25Z"/></clipPath><clipPath id="clip-path-4" transform="translate(-231 -300.37)"><path class="cls-1" d="M417.75,343.68l25.58-8.79a9.22,9.22,0,0,0-4.1,2.77c-2.11,2.47-3.05,6-2.82,10.68l-25.58,8.79c-.23-4.66.71-8.21,2.82-10.68A9.22,9.22,0,0,1,417.75,343.68Z"/></clipPath><clipPath id="clip-path-5" transform="translate(-231 -300.37)"><path class="cls-1" d="M429,405l25.58-8.79a2.28,2.28,0,0,1,.81-.1c1.15.06,2,.82,2.51,2.29l-25.58,8.79c-.52-1.47-1.36-2.23-2.51-2.29A2.28,2.28,0,0,0,429,405Z"/></clipPath><clipPath id="clip-path-6" transform="translate(-231 -300.37)"><path class="cls-1" d="M425.53,395l25.58-8.79a10.2,10.2,0,0,0-4.64,3.33q-3.39,4.16-3.07,10.78l-25.58,8.79q-.31-6.62,3.07-10.78A10.2,10.2,0,0,1,425.53,395Z"/></clipPath><clipPath id="clip-path-7" transform="translate(-231 -300.37)"><path class="cls-1" d="M384.26,403.8,409.84,395a7.68,7.68,0,0,1,2.89-.37,10.21,10.21,0,0,1,4.33,1.46l-25.58,8.79a10.21,10.21,0,0,0-4.33-1.46A7.68,7.68,0,0,0,384.26,403.8Z"/></clipPath><clipPath id="clip-path-8" transform="translate(-231 -300.37)"><path class="cls-1" d="M414.59,412.08,389,420.87a1.12,1.12,0,0,0,.82-1.22c0-.75-.53-1.14-1.52-1.18l25.58-8.79c1,.05,1.49.44,1.52,1.18A1.11,1.11,0,0,1,414.59,412.08Z"/></clipPath><clipPath id="clip-path-9" transform="translate(-231 -300.37)"><path class="cls-1" d="M416.72,422.53l-25.58,8.79a11.66,11.66,0,0,1-4.4.57q-6.8-.33-11.8-6.41A23.86,23.86,0,0,1,369.51,411q-.4-8.42,4.13-13.77a13.81,13.81,0,0,1,6.08-4.26l25.58-8.79a13.87,13.87,0,0,0-6.08,4.26q-4.53,5.35-4.13,13.77a23.86,23.86,0,0,0,5.43,14.47q5,6.07,11.8,6.42A11.86,11.86,0,0,0,416.72,422.53Z"/></clipPath><clipPath id="clip-path-10" transform="translate(-231 -300.37)"><path class="cls-1" d="M484.66,474.87c.66-.22,1.3-.89,1.21-2.65l25.58-8.79c.09,1.76-.55,2.43-1.21,2.65Z"/></clipPath><clipPath id="clip-path-11" transform="translate(-231 -300.37)"><path class="cls-1" d="M509.91,465.12l-25.58,8.79c.4-.14.7-.57.65-1.73l25.58-8.79C510.61,464.55,510.31,465,509.91,465.12Z"/></clipPath><clipPath id="clip-path-12" transform="translate(-231 -300.37)"><path class="cls-1" d="M513.23,475l-25.58,8.78A8.68,8.68,0,0,0,491.5,481a12,12,0,0,0,2.59-8.57l25.58-8.79a12,12,0,0,1-2.59,8.57A8.78,8.78,0,0,1,513.23,475Z"/></clipPath><clipPath id="clip-path-13" transform="translate(-231 -300.37)"><path class="cls-1" d="M510.24,466.08l-25.58,8.79a2.11,2.11,0,0,1-.8.11c-.81,0-2.2-.48-2.32-3l25.58-8.79c.12,2.49,1.51,2.93,2.32,3A2.11,2.11,0,0,0,510.24,466.08Z"/></clipPath><clipPath id="clip-path-14" transform="translate(-231 -300.37)"><path class="cls-1" d="M473.26,470.57l25.58-8.79c.19,3.84,1.13,6.9,2.8,9.1l-25.58,8.79,25.58-8.79a10.65,10.65,0,0,0,8.22,4.51l-25.57,8.79,25.57-8.79a9.06,9.06,0,0,0,3.37-.44l-25.58,8.78a8.86,8.86,0,0,1-3.37.45,10.65,10.65,0,0,1-8.22-4.51C474.39,477.47,473.45,474.4,473.26,470.57Z"/></clipPath><clipPath id="clip-path-15" transform="translate(-231 -300.37)"><path class="cls-1" d="M513.57,475.92,488,484.71a9.76,9.76,0,0,1-3.66.49,11.6,11.6,0,0,1-8.93-4.91c-1.82-2.4-2.84-5.68-3-9.76L498,461.74c.19,4.08,1.21,7.36,3,9.76a11.6,11.6,0,0,0,8.93,4.91A9.76,9.76,0,0,0,513.57,475.92Z"/></clipPath><clipPath id="clip-path-16" transform="translate(-231 -300.37)"><path class="cls-1" d="M451.37,455.28,477,446.49a11.42,11.42,0,0,1,4.35-.57,12.29,12.29,0,0,1,8.75,4.5,15.91,15.91,0,0,1,4,9.94A13.12,13.12,0,0,1,491,470l-25.58,8.79a13.12,13.12,0,0,0,3.14-9.65,15.91,15.91,0,0,0-4-9.94,12.31,12.31,0,0,0-8.75-4.5A11.42,11.42,0,0,0,451.37,455.28Z"/></clipPath><clipPath id="clip-path-17" transform="translate(-231 -300.37)"><path class="cls-1" d="M460.13,468.76a5.47,5.47,0,0,0-1.31-3.35l3-1,3.17-1.09,3.29-1.13,3.34-1.15,3.35-1.15,3.29-1.13,3.16-1.09,3-1a5.47,5.47,0,0,1,1.31,3.35Z"/></clipPath><clipPath id="clip-path-18" transform="translate(-231 -300.37)"><path class="cls-1" d="M459.13,472a4.54,4.54,0,0,0,1-3.24l3-1,3.17-1.09,3.29-1.13,3.35-1.15,3.34-1.15,3.29-1.13,3.17-1.09,3-1a4.54,4.54,0,0,1-1,3.24Z"/></clipPath><clipPath id="clip-path-19" transform="translate(-231 -300.37)"><path class="cls-1" d="M458.82,465.41a4,4,0,0,0-2.9-1.51l3-1,3.17-1.09,3.28-1.13,3.35-1.15,3.35-1.15,3.29-1.13,3.16-1.09,3-1a4,4,0,0,1,2.9,1.51Z"/></clipPath><clipPath id="clip-path-20" transform="translate(-231 -300.37)"><path class="cls-1" d="M486.45,473.11l-25.58,8.79a10.58,10.58,0,0,0,4.5-3.1L491,470A10.49,10.49,0,0,1,486.45,473.11Z"/></clipPath><clipPath id="clip-path-21" transform="translate(-231 -300.37)"><path class="cls-1" d="M455,465.05l25.58-8.79a2.43,2.43,0,0,1,1-.13,3.08,3.08,0,0,1,2.24,1.16,4.2,4.2,0,0,1,1,2.64,3.47,3.47,0,0,1-.78,2.53l-25.58,8.79a3.47,3.47,0,0,0,.78-2.53,4.2,4.2,0,0,0-1-2.64,3,3,0,0,0-2.24-1.16A2.43,2.43,0,0,0,455,465.05Z"/></clipPath><clipPath id="clip-path-22" transform="translate(-231 -300.37)"><path class="cls-1" d="M455.52,463.91a3,3,0,0,0-.86.16l25.58-8.79a3,3,0,0,1,.86-.16l-12.79,4.39-6.64,2.28-3.17,1.09A26.22,26.22,0,0,1,455.52,463.91Z"/></clipPath><clipPath id="clip-path-23" transform="translate(-231 -300.37)"><path class="cls-1" d="M457.63,473.06a3.4,3.4,0,0,0,1.5-1.06l25.58-8.79a3.4,3.4,0,0,1-1.5,1.06Z"/></clipPath><clipPath id="clip-path-24" transform="translate(-231 -300.37)"><path class="cls-1" d="M482.87,463.3l-25.58,8.79a2.64,2.64,0,0,0,1.16-.84L484,462.46A2.64,2.64,0,0,1,482.87,463.3Z"/></clipPath><clipPath id="clip-path-25" transform="translate(-231 -300.37)"><path class="cls-1" d="M460.87,481.9a10.59,10.59,0,0,1-4,.54l3-1,3.16-1.09,3.29-1.13,3.35-1.15,3.35-1.15,3.28-1.13,3.17-1.09,3-1a10.59,10.59,0,0,0,4-.54Z"/></clipPath><clipPath id="clip-path-26" transform="translate(-231 -300.37)"><path class="cls-1" d="M483.21,464.27l-25.58,8.79a3.44,3.44,0,0,1-1.25.17,4,4,0,0,1-2.87-1.51,5.37,5.37,0,0,1-1.32-3.35,4.47,4.47,0,0,1,1-3.24,3.32,3.32,0,0,1,1.47-1.06l25.59-8.79a3.29,3.29,0,0,0-1.48,1.06,4.49,4.49,0,0,0-1,3.24,5.35,5.35,0,0,0,1.32,3.35,4,4,0,0,0,2.87,1.51A3.24,3.24,0,0,0,483.21,464.27Z"/></clipPath><clipPath id="clip-path-27" transform="translate(-231 -300.37)"><path class="cls-1" d="M447,458.26a10.4,10.4,0,0,1,4.42-3L477,446.49a10.4,10.4,0,0,0-4.42,3Z"/></clipPath><clipPath id="clip-path-28" transform="translate(-231 -300.37)"><path class="cls-1" d="M447.91,477.92a15.72,15.72,0,0,1-4.1-10l3-1,3.17-1.09,3.28-1.13,3.35-1.15,3.35-1.15,3.29-1.13,3.16-1.09,3-1a15.77,15.77,0,0,0,4.1,10Z"/></clipPath><clipPath id="clip-path-29" transform="translate(-231 -300.37)"><path class="cls-1" d="M456.85,482.44a12.6,12.6,0,0,1-8.94-4.52l3-1,3.17-1.09,3.29-1.13,3.34-1.15,3.35-1.15,3.29-1.13,3.16-1.09,3-1a12.62,12.62,0,0,0,8.94,4.51L469.64,478l-1.68.58-1.67.57-1.65.57-1.64.56-3.16,1.09A19.22,19.22,0,0,1,456.85,482.44Z"/></clipPath><clipPath id="clip-path-30" transform="translate(-231 -300.37)"><path class="cls-1" d="M486.8,474.09l-25.58,8.79a11.34,11.34,0,0,1-4.32.57,13.55,13.55,0,0,1-9.58-4.83,16.88,16.88,0,0,1-4.4-10.74,13.88,13.88,0,0,1,3.37-10.37A11.23,11.23,0,0,1,451,454.3l25.58-8.79a11.23,11.23,0,0,0-4.75,3.21,13.88,13.88,0,0,0-3.37,10.37,16.88,16.88,0,0,0,4.4,10.74,13.55,13.55,0,0,0,9.58,4.83A11.34,11.34,0,0,0,486.8,474.09Z"/></clipPath><clipPath id="clip-path-31" transform="translate(-231 -300.37)"><path class="cls-1" d="M402.62,461.82a2.42,2.42,0,0,0-1,.12l25.58-8.79a2.42,2.42,0,0,1,1-.12,3.45,3.45,0,0,1,1.3.36l-25.58,8.79A3.28,3.28,0,0,0,402.62,461.82Z"/></clipPath><clipPath id="clip-path-32" transform="translate(-231 -300.37)"><path class="cls-1" d="M402,462.91l25.58-8.79a1.76,1.76,0,0,1,.68-.08,3.17,3.17,0,0,1,1.54.62l-25.58,8.78a3.24,3.24,0,0,0-1.54-.61A1.76,1.76,0,0,0,402,462.91Z"/></clipPath><clipPath id="clip-path-33" transform="translate(-231 -300.37)"><path class="cls-1" d="M397.5,452.46l25.58-8.79a9.43,9.43,0,0,1,3.6-.46,15.84,15.84,0,0,1,2.34.35l-25.58,8.79a15.84,15.84,0,0,0-2.34-.35A9.43,9.43,0,0,0,397.5,452.46Z"/></clipPath><clipPath id="clip-path-34" transform="translate(-231 -300.37)"><path class="cls-1" d="M401.66,461.94l25.58-8.79c-1,.35-1.89,1.51-1.74,4.56l-25.58,8.79C399.77,463.45,400.64,462.29,401.66,461.94Z"/></clipPath><clipPath id="clip-path-35" transform="translate(-231 -300.37)"><path class="cls-1" d="M393.91,455a7.57,7.57,0,0,1,3.59-2.58l25.58-8.79a7.64,7.64,0,0,0-3.59,2.58L393.91,455l25.58-8.79c-1.73,2.16-2.5,5.22-2.31,9.06L391.6,464.1C391.41,460.26,392.18,457.2,393.91,455Z"/></clipPath><clipPath id="clip-path-36" transform="translate(-231 -300.37)"><path class="cls-1" d="M397.15,451.48l25.58-8.79a8.44,8.44,0,0,0-3.93,2.83c-1.87,2.36-2.72,5.64-2.52,9.74l-25.58,8.79c-.2-4.1.65-7.38,2.52-9.74A8.44,8.44,0,0,1,397.15,451.48Z"/></clipPath><clipPath id="clip-path-37" transform="translate(-231 -300.37)"><path class="cls-1" d="M369.82,451.23l25.58-8.79a11.8,11.8,0,0,1,4.34-.57,12.31,12.31,0,0,1,8.75,4.51,15.76,15.76,0,0,1,4,9.94A13,13,0,0,1,409.4,466l-25.58,8.79a13,13,0,0,0,3.13-9.64,15.8,15.8,0,0,0-4-9.95,12.33,12.33,0,0,0-8.75-4.5A11.8,11.8,0,0,0,369.82,451.23Z"/></clipPath><clipPath id="clip-path-38" transform="translate(-231 -300.37)"><path class="cls-1" d="M378.58,464.72a5.36,5.36,0,0,0-1.31-3.36l3-1,3.16-1.09,3.29-1.12,3.35-1.15,3.35-1.16,3.28-1.12,3.17-1.09,3-1a5.36,5.36,0,0,1,1.31,3.36Z"/></clipPath><clipPath id="clip-path-39" transform="translate(-231 -300.37)"><path class="cls-1" d="M377.57,468a4.52,4.52,0,0,0,1-3.23l3-1,3.17-1.09,3.28-1.13,3.35-1.15,3.35-1.15L398,458l3.16-1.09,3-1a4.52,4.52,0,0,1-1,3.23Z"/></clipPath><clipPath id="clip-path-40" transform="translate(-231 -300.37)"><path class="cls-1" d="M377.27,461.36a4,4,0,0,0-2.9-1.5l12.79-4.4,3.35-1.15,3.28-1.13,3.17-1.09,3-1a4,4,0,0,1,2.9,1.5Z"/></clipPath><clipPath id="clip-path-41" transform="translate(-231 -300.37)"><path class="cls-1" d="M404.9,469.06l-25.58,8.79a10.43,10.43,0,0,0,4.5-3.1L409.4,466A10.43,10.43,0,0,1,404.9,469.06Z"/></clipPath><clipPath id="clip-path-42" transform="translate(-231 -300.37)"><path class="cls-1" d="M373.45,461,399,452.21a2.54,2.54,0,0,1,1-.13,3.1,3.1,0,0,1,2.24,1.16,4.23,4.23,0,0,1,1,2.64,3.5,3.5,0,0,1-.79,2.54l-25.58,8.79a3.5,3.5,0,0,0,.79-2.54,4.21,4.21,0,0,0-1-2.64,3.1,3.1,0,0,0-2.24-1.16A2.54,2.54,0,0,0,373.45,461Z"/></clipPath><clipPath id="clip-path-43" transform="translate(-231 -300.37)"><path class="cls-1" d="M374,459.86a3.13,3.13,0,0,0-.86.17l25.58-8.79a3.13,3.13,0,0,1,.86-.17l-12.79,4.39-1.67.58-5,1.7L377,458.83A26.38,26.38,0,0,1,374,459.86Z"/></clipPath><clipPath id="clip-path-44" transform="translate(-231 -300.37)"><path class="cls-1" d="M401.32,459.25,375.74,468a2.64,2.64,0,0,0,1.16-.83l25.58-8.79A2.56,2.56,0,0,1,401.32,459.25Z"/></clipPath><clipPath id="clip-path-45" transform="translate(-231 -300.37)"><path class="cls-1" d="M376.08,469a3.38,3.38,0,0,0,1.49-1.06l25.58-8.79a3.38,3.38,0,0,1-1.49,1.06Z"/></clipPath><clipPath id="clip-path-46" transform="translate(-231 -300.37)"><path class="cls-1" d="M379.32,477.85a10.65,10.65,0,0,1-4,.54l3-1,3.17-1.09c1-.33,2.3-.79,3.29-1.13l3.34-1.15,3.35-1.15c1-.33,2.3-.79,3.29-1.13l3.17-1.08,3-1a10.65,10.65,0,0,0,4-.54Z"/></clipPath><clipPath id="clip-path-47" transform="translate(-231 -300.37)"><path class="cls-1" d="M401.66,460.22,376.08,469a3.26,3.26,0,0,1-1.26.17,4,4,0,0,1-2.86-1.51,5.42,5.42,0,0,1-1.33-3.35,4.53,4.53,0,0,1,1-3.24A3.32,3.32,0,0,1,373.1,460l25.58-8.79a3.32,3.32,0,0,0-1.48,1.05,4.55,4.55,0,0,0-1,3.24,5.42,5.42,0,0,0,1.33,3.35,4,4,0,0,0,2.86,1.51A3.26,3.26,0,0,0,401.66,460.22Z"/></clipPath><clipPath id="clip-path-48" transform="translate(-231 -300.37)"><path class="cls-1" d="M365.4,454.21a10.56,10.56,0,0,1,4.42-3l25.58-8.79a10.56,10.56,0,0,0-4.42,3Z"/></clipPath><clipPath id="clip-path-49" transform="translate(-231 -300.37)"><path class="cls-1" d="M375.29,478.39a12.64,12.64,0,0,1-8.93-4.51l3-1,3.16-1.09,3.29-1.13,3.35-1.15,3.35-1.15,3.28-1.13,3.17-1.08,3-1a12.64,12.64,0,0,0,8.93,4.51L388.08,474l-3.34,1.15-1.66.57-3.23,1.11-1.57.54A17.91,17.91,0,0,1,375.29,478.39Z"/></clipPath><clipPath id="clip-path-50" transform="translate(-231 -300.37)"><path class="cls-1" d="M366.36,473.88a15.77,15.77,0,0,1-4.1-10l3-1c1-.32,2.22-.76,3.17-1.09l3.29-1.12,3.35-1.16,3.34-1.15,3.29-1.12,3.17-1.09,3-1a15.77,15.77,0,0,0,4.1,10Z"/></clipPath><clipPath id="clip-path-51" transform="translate(-231 -300.37)"><path class="cls-1" d="M405.25,470l-25.58,8.79a11.4,11.4,0,0,1-4.33.57,13.53,13.53,0,0,1-9.57-4.83,16.94,16.94,0,0,1-4.41-10.73,14,14,0,0,1,3.38-10.38,11.17,11.17,0,0,1,4.75-3.2l25.58-8.79a11.17,11.17,0,0,0-4.75,3.2,14,14,0,0,0-3.38,10.38,16.94,16.94,0,0,0,4.41,10.73,13.49,13.49,0,0,0,9.57,4.83A11.4,11.4,0,0,0,405.25,470Z"/></clipPath><clipPath id="clip-path-52" transform="translate(-231 -300.37)"><path class="cls-1" d="M346.67,439.5l25.58-8.78a10.5,10.5,0,0,1,4.05-.53c3.72.18,7,2.12,9.69,5.76l-25.58,8.79c-2.72-3.64-6-5.58-9.69-5.76A10.7,10.7,0,0,0,346.67,439.5Z"/></clipPath><clipPath id="clip-path-53" transform="translate(-231 -300.37)"><path class="cls-1" d="M350.72,448.4a2.62,2.62,0,0,0-1,.13l25.58-8.79a2.42,2.42,0,0,1,1-.12,3.13,3.13,0,0,1,2.7,2l-25.58,8.79A3.16,3.16,0,0,0,350.72,448.4Z"/></clipPath><clipPath id="clip-path-54" transform="translate(-231 -300.37)"><path class="cls-1" d="M350.11,449.5l25.58-8.79a1.67,1.67,0,0,1,.66-.08c1,.05,1.63.67,2.08,1.93l-25.58,8.79c-.45-1.27-1.12-1.88-2.08-1.93A1.67,1.67,0,0,0,350.11,449.5Z"/></clipPath><clipPath id="clip-path-55" transform="translate(-231 -300.37)"><path class="cls-1" d="M349.76,448.53l25.58-8.79c-.92.31-1.71,1.31-1.58,3.84l-25.58,8.79C348.05,449.84,348.83,448.84,349.76,448.53Z"/></clipPath><clipPath id="clip-path-56" transform="translate(-231 -300.37)"><path class="cls-1" d="M342.19,442.72a9.85,9.85,0,0,1,4.48-3.21l25.58-8.79a9.85,9.85,0,0,0-4.48,3.21l-25.58,8.79,25.58-8.79c-2.18,2.67-3.17,6.17-3,10.43l-25.58,8.79C339,448.89,340,445.38,342.19,442.72Z"/></clipPath><clipPath id="clip-path-57" transform="translate(-231 -300.37)"><path class="cls-1" d="M346.32,438.53l25.58-8.79a10.71,10.71,0,0,0-4.82,3.45c-2.32,2.86-3.39,6.6-3.17,11.13l-25.58,8.79c-.22-4.53.85-8.27,3.17-11.13A10.71,10.71,0,0,1,346.32,438.53Z"/></clipPath></defs><title>Card Page</title><g class="cls-2"><polygon class="cls-3" points="30.11 2.06 2.06 107 2.06 2.06 30.11 2.06"/><polygon class="cls-3" points="37.31 2.06 2.06 133.96 2.06 107 30.11 2.06 37.31 2.06"/><polygon class="cls-4" points="44.52 2.06 2.06 160.92 2.06 133.96 37.31 2.06 44.52 2.06"/><polygon class="cls-5" points="51.73 2.06 2.06 187.88 2.06 160.92 44.52 2.06 51.73 2.06"/><polygon class="cls-6" points="58.93 2.06 2.06 214.84 2.06 187.88 51.73 2.06 58.93 2.06"/><polygon class="cls-7" points="66.14 2.06 4.36 233.19 3.68 233.19 2.06 232.76 2.06 214.84 58.93 2.06 66.14 2.06"/><polygon class="cls-8" points="73.34 2.06 11.57 233.19 4.36 233.19 66.14 2.06 73.34 2.06"/><polygon class="cls-9" points="80.55 2.06 18.77 233.19 11.57 233.19 73.34 2.06 80.55 2.06"/><polygon class="cls-10" points="87.75 2.06 25.98 233.19 18.77 233.19 80.55 2.06 87.75 2.06"/><polygon class="cls-11" points="94.95 2.06 33.18 233.19 25.98 233.19 87.75 2.06 94.95 2.06"/><polygon class="cls-12" points="102.16 2.06 40.39 233.19 33.18 233.19 94.95 2.06 102.16 2.06"/><polygon class="cls-13" points="109.36 2.06 47.59 233.19 40.39 233.19 102.16 2.06 109.36 2.06"/><polygon class="cls-14" points="116.57 2.06 54.8 233.19 47.59 233.19 109.36 2.06 116.57 2.06"/><polygon class="cls-15" points="123.77 2.06 62 233.19 54.8 233.19 116.57 2.06 123.77 2.06"/><polygon class="cls-16" points="130.98 2.06 69.21 233.19 62 233.19 123.77 2.06 130.98 2.06"/><polygon class="cls-17" points="138.18 2.06 76.41 233.19 69.21 233.19 130.98 2.06 138.18 2.06"/><polygon class="cls-18" points="145.39 2.06 83.62 233.19 76.41 233.19 138.18 2.06 145.39 2.06"/><polygon class="cls-19" points="152.59 2.06 90.82 233.19 83.62 233.19 145.39 2.06 152.59 2.06"/><polygon class="cls-20" points="159.8 2.06 98.03 233.19 90.82 233.19 152.59 2.06 159.8 2.06"/><polygon class="cls-21" points="167 2.06 105.23 233.19 98.03 233.19 159.8 2.06 167 2.06"/><polygon class="cls-22" points="174.21 2.06 112.44 233.19 105.23 233.19 167 2.06 174.21 2.06"/><polygon class="cls-23" points="181.41 2.06 119.64 233.19 112.44 233.19 174.21 2.06 181.41 2.06"/><polygon class="cls-24" points="188.62 2.06 126.85 233.19 119.64 233.19 181.41 2.06 188.62 2.06"/><polygon class="cls-25" points="195.82 2.06 134.05 233.19 126.85 233.19 188.62 2.06 195.82 2.06"/><polygon class="cls-26" points="203.03 2.06 141.26 233.19 134.05 233.19 195.82 2.06 203.03 2.06"/><polygon class="cls-27" points="210.23 2.06 148.46 233.19 141.26 233.19 203.03 2.06 210.23 2.06"/><polygon class="cls-28" points="217.44 2.06 155.66 233.19 148.46 233.19 210.23 2.06 217.44 2.06"/><polygon class="cls-29" points="224.64 2.06 162.87 233.19 155.66 233.19 217.44 2.06 224.64 2.06"/><polygon class="cls-30" points="231.85 2.06 170.07 233.19 162.87 233.19 224.64 2.06 231.85 2.06"/><polygon class="cls-31" points="239.05 2.06 177.28 233.19 170.07 233.19 231.85 2.06 239.05 2.06"/><polygon class="cls-32" points="246.26 2.06 184.49 233.19 177.28 233.19 239.05 2.06 246.26 2.06"/><polygon class="cls-33" points="253.46 2.06 191.69 233.19 184.49 233.19 246.26 2.06 253.46 2.06"/><polygon class="cls-34" points="260.67 2.06 198.9 233.19 191.69 233.19 253.46 2.06 260.67 2.06"/><polygon class="cls-35" points="267.87 2.06 206.1 233.19 198.9 233.19 260.67 2.06 267.87 2.06"/><polygon class="cls-36" points="275.08 2.06 213.31 233.19 206.1 233.19 267.87 2.06 275.08 2.06"/><polygon class="cls-37" points="282.28 2.06 220.51 233.19 213.31 233.19 275.08 2.06 282.28 2.06"/><polygon class="cls-38" points="289.49 2.06 227.72 233.19 220.51 233.19 282.28 2.06 289.49 2.06"/><polygon class="cls-39" points="296.69 2.06 234.92 233.19 227.72 233.19 289.49 2.06 296.69 2.06"/><polygon class="cls-40" points="303.9 2.06 242.12 233.19 234.92 233.19 296.69 2.06 303.9 2.06"/><polygon class="cls-41" points="311.1 2.06 249.33 233.19 242.12 233.19 303.9 2.06 311.1 2.06"/><polygon class="cls-42" points="318.31 2.06 256.53 233.19 249.33 233.19 311.1 2.06 318.31 2.06"/><polygon class="cls-42" points="325.51 2.06 263.74 233.19 256.53 233.19 318.31 2.06 325.51 2.06"/><polygon class="cls-43" points="332.72 2.06 270.94 233.19 263.74 233.19 325.51 2.06 332.72 2.06"/><polygon class="cls-44" points="339.92 2.06 278.15 233.19 270.94 233.19 332.72 2.06 339.92 2.06"/><polygon class="cls-44" points="347.13 2.06 285.35 233.19 278.15 233.19 339.92 2.06 347.13 2.06"/><polygon class="cls-45" points="354.33 2.06 292.56 233.19 285.35 233.19 347.13 2.06 354.33 2.06"/><polygon class="cls-45" points="361.54 2.06 299.76 233.19 292.56 233.19 354.33 2.06 361.54 2.06"/><polygon class="cls-46" points="368.74 2.06 306.97 233.19 299.76 233.19 361.54 2.06 368.74 2.06"/><polygon class="cls-46" points="375.95 2.06 314.17 233.19 306.97 233.19 368.74 2.06 375.95 2.06"/><polygon class="cls-47" points="383.15 2.06 321.38 233.19 314.17 233.19 375.95 2.06 383.15 2.06"/><polygon class="cls-47" points="385.32 2.06 386.94 2.5 386.94 14.86 328.58 233.19 321.38 233.19 383.15 2.06 385.32 2.06"/><polygon class="cls-48" points="386.94 41.82 335.79 233.19 328.58 233.19 386.94 14.86 386.94 41.82"/><polygon class="cls-49" points="386.94 68.77 342.99 233.19 335.79 233.19 386.94 41.82 386.94 68.77"/><polygon class="cls-49" points="386.94 95.73 350.2 233.19 342.99 233.19 386.94 68.77 386.94 95.73"/><polygon class="cls-49" points="386.94 122.69 357.4 233.19 350.2 233.19 386.94 95.73 386.94 122.69"/><polygon class="cls-49" points="357.4 233.19 386.94 122.69 386.94 233.19 357.4 233.19"/></g><g class="cls-50"><polygon class="cls-51" points="7.56 4.13 4.13 10.08 4.13 4.13 7.56 4.13"/><polygon class="cls-51" points="16.04 4.13 4.13 24.76 4.13 10.08 7.56 4.13 16.04 4.13"/><polygon class="cls-52" points="24.52 4.13 4.13 39.45 4.13 24.76 16.04 4.13 24.52 4.13"/><polygon class="cls-53" points="33 4.13 4.13 54.14 4.13 39.45 24.52 4.13 33 4.13"/><polygon class="cls-54" points="41.48 4.13 4.13 68.83 4.13 54.14 33 4.13 41.48 4.13"/><polygon class="cls-55" points="49.96 4.13 4.13 83.52 4.13 68.83 41.48 4.13 49.96 4.13"/><polygon class="cls-56" points="58.44 4.13 4.13 98.2 4.13 83.52 49.96 4.13 58.44 4.13"/><polygon class="cls-57" points="66.92 4.13 4.13 112.89 4.13 98.2 58.44 4.13 66.92 4.13"/><polygon class="cls-58" points="75.4 4.13 4.13 127.58 4.13 112.89 66.92 4.13 75.4 4.13"/><polygon class="cls-59" points="83.88 4.13 4.13 142.26 4.13 127.58 75.4 4.13 83.88 4.13"/><polygon class="cls-60" points="92.36 4.13 4.13 156.95 4.13 142.26 83.88 4.13 92.36 4.13"/><polygon class="cls-61" points="100.84 4.13 4.13 171.64 4.13 156.95 92.36 4.13 100.84 4.13"/><polygon class="cls-62" points="109.32 4.13 4.13 186.33 4.13 171.64 100.84 4.13 109.32 4.13"/><polygon class="cls-63" points="117.8 4.13 4.13 201.01 4.13 186.33 109.32 4.13 117.8 4.13"/><polygon class="cls-64" points="126.28 4.13 4.13 215.7 4.13 201.01 117.8 4.13 126.28 4.13"/><polygon class="cls-65" points="134.76 4.13 4.98 228.91 4.13 228.42 4.13 215.7 126.28 4.13 134.76 4.13"/><polygon class="cls-66" points="143.24 4.13 12.18 231.13 8.83 231.13 4.98 228.91 134.76 4.13 143.24 4.13"/><polygon class="cls-67" points="151.72 4.13 20.66 231.13 12.18 231.13 143.24 4.13 151.72 4.13"/><polygon class="cls-68" points="160.2 4.13 29.14 231.13 20.66 231.13 151.72 4.13 160.2 4.13"/><polygon class="cls-69" points="168.68 4.13 37.62 231.13 29.14 231.13 160.2 4.13 168.68 4.13"/><polygon class="cls-70" points="177.16 4.13 46.1 231.13 37.62 231.13 168.68 4.13 177.16 4.13"/><polygon class="cls-71" points="185.64 4.13 54.58 231.13 46.1 231.13 177.16 4.13 185.64 4.13"/><polygon class="cls-72" points="194.12 4.13 63.06 231.13 54.58 231.13 185.64 4.13 194.12 4.13"/><polygon class="cls-73" points="202.6 4.13 71.54 231.13 63.06 231.13 194.12 4.13 202.6 4.13"/><polygon class="cls-74" points="211.08 4.13 80.02 231.13 71.54 231.13 202.6 4.13 211.08 4.13"/><polygon class="cls-75" points="219.56 4.13 88.5 231.13 80.02 231.13 211.08 4.13 219.56 4.13"/><polygon class="cls-76" points="228.04 4.13 96.98 231.13 88.5 231.13 219.56 4.13 228.04 4.13"/><polygon class="cls-77" points="236.52 4.13 105.46 231.13 96.98 231.13 228.04 4.13 236.52 4.13"/><polygon class="cls-78" points="245 4.13 113.94 231.13 105.46 231.13 236.52 4.13 245 4.13"/><polygon class="cls-79" points="253.48 4.13 122.42 231.13 113.94 231.13 245 4.13 253.48 4.13"/><polygon class="cls-80" points="261.96 4.13 130.9 231.13 122.42 231.13 253.48 4.13 261.96 4.13"/><polygon class="cls-81" points="270.44 4.13 139.38 231.13 130.9 231.13 261.96 4.13 270.44 4.13"/><polygon class="cls-82" points="278.92 4.13 147.86 231.13 139.38 231.13 270.44 4.13 278.92 4.13"/><polygon class="cls-83" points="287.4 4.13 156.34 231.13 147.86 231.13 278.92 4.13 287.4 4.13"/><polygon class="cls-84" points="295.88 4.13 164.82 231.13 156.34 231.13 287.4 4.13 295.88 4.13"/><polygon class="cls-85" points="304.36 4.13 173.3 231.13 164.82 231.13 295.88 4.13 304.36 4.13"/><polygon class="cls-86" points="312.84 4.13 181.78 231.13 173.3 231.13 304.36 4.13 312.84 4.13"/><polygon class="cls-87" points="321.32 4.13 190.26 231.13 181.78 231.13 312.84 4.13 321.32 4.13"/><polygon class="cls-88" points="329.8 4.13 198.74 231.13 190.26 231.13 321.32 4.13 329.8 4.13"/><polygon class="cls-89" points="338.28 4.13 207.22 231.13 198.74 231.13 329.8 4.13 338.28 4.13"/><polygon class="cls-90" points="346.76 4.13 215.7 231.13 207.22 231.13 338.28 4.13 346.76 4.13"/><polygon class="cls-91" points="355.24 4.13 224.18 231.13 215.7 231.13 346.76 4.13 355.24 4.13"/><polygon class="cls-92" points="363.72 4.13 232.66 231.13 224.18 231.13 355.24 4.13 363.72 4.13"/><polygon class="cls-92" points="372.2 4.13 241.14 231.13 232.66 231.13 363.72 4.13 372.2 4.13"/><polygon class="cls-93" points="380.17 4.13 380.55 4.34 249.62 231.13 241.14 231.13 372.2 4.13 380.17 4.13"/><polygon class="cls-94" points="380.55 4.34 384.87 6.84 384.87 11.55 258.1 231.13 249.62 231.13 380.55 4.34"/><polygon class="cls-95" points="384.87 26.23 266.58 231.13 258.1 231.13 384.87 11.55 384.87 26.23"/><polygon class="cls-96" points="384.87 40.92 275.06 231.13 266.58 231.13 384.87 26.23 384.87 40.92"/><polygon class="cls-97" points="384.87 55.61 283.54 231.13 275.06 231.13 384.87 40.92 384.87 55.61"/><polygon class="cls-98" points="384.87 70.3 292.02 231.13 283.54 231.13 384.87 55.61 384.87 70.3"/><polygon class="cls-98" points="384.87 84.98 300.5 231.13 292.02 231.13 384.87 70.3 384.87 84.98"/><polygon class="cls-99" points="384.87 99.67 308.98 231.13 300.5 231.13 384.87 84.98 384.87 99.67"/><polygon class="cls-100" points="384.87 114.36 317.45 231.13 308.98 231.13 384.87 99.67 384.87 114.36"/><polygon class="cls-100" points="384.87 129.05 325.94 231.13 317.45 231.13 384.87 114.36 384.87 129.05"/><polygon class="cls-101" points="384.87 143.74 334.42 231.13 325.94 231.13 384.87 129.05 384.87 143.74"/><polygon class="cls-101" points="384.87 158.42 342.89 231.13 334.42 231.13 384.87 143.74 384.87 158.42"/><polygon class="cls-101" points="384.87 173.11 351.38 231.13 342.89 231.13 384.87 158.42 384.87 173.11"/><polygon class="cls-49" points="384.87 187.8 359.86 231.13 351.38 231.13 384.87 173.11 384.87 187.8"/><polygon class="cls-49" points="384.87 202.49 368.33 231.13 359.86 231.13 384.87 187.8 384.87 202.49"/><polygon class="cls-49" points="384.87 217.17 376.81 231.13 368.33 231.13 384.87 202.49 384.87 217.17"/><polygon class="cls-49" points="376.81 231.13 384.87 217.17 384.87 231.13 376.81 231.13"/><polygon class="cls-51" points="9.95 0 0 17.23 0 0 9.95 0"/><polygon class="cls-51" points="18.43 0 0 31.91 0 17.23 9.95 0 18.43 0"/><polygon class="cls-52" points="26.91 0 0 46.6 0 31.91 18.43 0 26.91 0"/><polygon class="cls-53" points="35.38 0 0 61.29 0 46.6 26.91 0 35.38 0"/><polygon class="cls-54" points="43.87 0 0 75.98 0 61.29 35.38 0 43.87 0"/><polygon class="cls-55" points="52.34 0 0 90.66 0 75.98 43.87 0 52.34 0"/><polygon class="cls-56" points="60.82 0 0 105.35 0 90.66 52.34 0 60.82 0"/><polygon class="cls-57" points="69.3 0 0 120.04 0 105.35 60.82 0 69.3 0"/><polygon class="cls-58" points="77.78 0 0 134.73 0 120.04 69.3 0 77.78 0"/><polygon class="cls-59" points="86.26 0 0 149.41 0 134.73 77.78 0 86.26 0"/><polygon class="cls-60" points="94.74 0 0 164.1 0 149.41 86.26 0 94.74 0"/><polygon class="cls-61" points="103.22 0 0 178.79 0 164.1 94.74 0 103.22 0"/><polygon class="cls-62" points="111.7 0 0 193.48 0 178.79 103.22 0 111.7 0"/><polygon class="cls-63" points="120.18 0 0 208.16 0 193.48 111.7 0 120.18 0"/><polygon class="cls-64" points="128.66 0 0 222.85 0 208.16 120.18 0 128.66 0"/><polygon class="cls-65" points="137.14 0 2.63 232.99 0 231.48 0 222.85 128.66 0 137.14 0"/><polygon class="cls-66" points="145.62 0 9.8 235.26 6.55 235.26 2.63 232.99 137.14 0 145.62 0"/><polygon class="cls-67" points="154.1 0 18.28 235.26 9.8 235.26 145.62 0 154.1 0"/><polygon class="cls-68" points="162.58 0 26.76 235.26 18.28 235.26 154.1 0 162.58 0"/><polygon class="cls-69" points="171.06 0 35.24 235.26 26.76 235.26 162.58 0 171.06 0"/><polygon class="cls-70" points="179.54 0 43.72 235.26 35.24 235.26 171.06 0 179.54 0"/><polygon class="cls-71" points="188.02 0 52.2 235.26 43.72 235.26 179.54 0 188.02 0"/><polygon class="cls-72" points="196.5 0 60.68 235.26 52.2 235.26 188.02 0 196.5 0"/><polygon class="cls-73" points="204.98 0 69.16 235.26 60.68 235.26 196.5 0 204.98 0"/><polygon class="cls-74" points="213.46 0 77.64 235.26 69.16 235.26 204.98 0 213.46 0"/><polygon class="cls-75" points="221.94 0 86.12 235.26 77.64 235.26 213.46 0 221.94 0"/><polygon class="cls-76" points="230.42 0 94.6 235.26 86.12 235.26 221.94 0 230.42 0"/><polygon class="cls-77" points="238.9 0 103.08 235.26 94.6 235.26 230.42 0 238.9 0"/><polygon class="cls-78" points="247.38 0 111.56 235.26 103.08 235.26 238.9 0 247.38 0"/><polygon class="cls-79" points="255.86 0 120.03 235.26 111.56 235.26 247.38 0 255.86 0"/><polygon class="cls-80" points="264.34 0 128.51 235.26 120.03 235.26 255.86 0 264.34 0"/><polygon class="cls-81" points="272.82 0 137 235.26 128.51 235.26 264.34 0 272.82 0"/><polygon class="cls-82" points="281.3 0 145.47 235.26 137 235.26 272.82 0 281.3 0"/><polygon class="cls-83" points="289.78 0 153.96 235.26 145.47 235.26 281.3 0 289.78 0"/><polygon class="cls-84" points="298.26 0 162.44 235.26 153.96 235.26 289.78 0 298.26 0"/><polygon class="cls-85" points="306.74 0 170.91 235.26 162.44 235.26 298.26 0 306.74 0"/><polygon class="cls-86" points="315.22 0 179.4 235.26 170.91 235.26 306.74 0 315.22 0"/><polygon class="cls-87" points="323.7 0 187.87 235.26 179.4 235.26 315.22 0 323.7 0"/><polygon class="cls-88" points="332.18 0 196.35 235.26 187.87 235.26 323.7 0 332.18 0"/><polygon class="cls-89" points="340.66 0 204.83 235.26 196.35 235.26 332.18 0 340.66 0"/><polygon class="cls-90" points="349.14 0 213.31 235.26 204.83 235.26 340.66 0 349.14 0"/><polygon class="cls-91" points="357.62 0 221.79 235.26 213.31 235.26 349.14 0 357.62 0"/><polygon class="cls-92" points="366.1 0 230.27 235.26 221.79 235.26 357.62 0 366.1 0"/><polygon class="cls-92" points="374.58 0 238.75 235.26 230.27 235.26 366.1 0 374.58 0"/><polygon class="cls-93" points="382.45 0 382.91 0.26 247.23 235.26 238.75 235.26 374.58 0 382.45 0"/><polygon class="cls-94" points="382.91 0.26 389 3.78 389 4.4 255.71 235.26 247.23 235.26 382.91 0.26"/><polygon class="cls-95" points="389 19.09 264.19 235.26 255.71 235.26 389 4.4 389 19.09"/><polygon class="cls-96" points="389 33.77 272.67 235.26 264.19 235.26 389 19.09 389 33.77"/><polygon class="cls-97" points="389 48.46 281.15 235.26 272.67 235.26 389 33.77 389 48.46"/><polygon class="cls-98" points="389 63.15 289.63 235.26 281.15 235.26 389 48.46 389 63.15"/><polygon class="cls-98" points="389 77.84 298.11 235.26 289.63 235.26 389 63.15 389 77.84"/><polygon class="cls-99" points="389 92.52 306.59 235.26 298.11 235.26 389 77.84 389 92.52"/><polygon class="cls-100" points="389 107.21 315.07 235.26 306.59 235.26 389 92.52 389 107.21"/><polygon class="cls-100" points="389 121.9 323.55 235.26 315.07 235.26 389 107.21 389 121.9"/><polygon class="cls-101" points="389 136.59 332.03 235.26 323.55 235.26 389 121.9 389 136.59"/><polygon class="cls-101" points="389 151.27 340.51 235.26 332.03 235.26 389 136.59 389 151.27"/><polygon class="cls-101" points="389 165.96 348.99 235.26 340.51 235.26 389 151.27 389 165.96"/><polygon class="cls-49" points="389 180.65 357.47 235.26 348.99 235.26 389 165.96 389 180.65"/><polygon class="cls-49" points="389 195.34 365.95 235.26 357.47 235.26 389 180.65 389 195.34"/><polygon class="cls-49" points="389 210.02 374.43 235.26 365.95 235.26 389 195.34 389 210.02"/><polygon class="cls-49" points="374.43 235.26 389 210.02 389 235.26 374.43 235.26"/></g><g class="cls-102"><g class="cls-102"><g class="cls-103"><g class="cls-102"><path class="cls-104" d="M450.77,349.41l-25.58,8.79a7.55,7.55,0,0,0-.62-3.1,1.92,1.92,0,0,0-1.7-.94,2.12,2.12,0,0,0-.77.09l25.58-8.78a2.12,2.12,0,0,1,.77-.1,1.92,1.92,0,0,1,1.7.94,7.55,7.55,0,0,1,.62,3.1" transform="translate(-231 -300.37)"/></g></g></g><polygon class="cls-105" points="220.92 72.72 195.34 81.51 194.19 57.83 219.77 49.04 220.92 72.72"/><polygon class="cls-106" points="230.82 73.21 205.24 82 195.34 81.51 220.92 72.72 230.82 73.21"/><polygon class="cls-106" points="218.89 63.64 193.31 72.43 190.46 72.28 216.04 63.5 218.89 63.64"/><g class="cls-102"><g class="cls-107"><g class="cls-102"><path class="cls-104" d="M436.41,348.34l-25.58,8.79c-.23-4.66.71-8.21,2.82-10.68a9.22,9.22,0,0,1,4.1-2.77l25.58-8.79a9.22,9.22,0,0,0-4.1,2.77c-2.11,2.47-3.05,6-2.82,10.68" transform="translate(-231 -300.37)"/></g></g></g><polygon class="cls-105" points="206.58 72.01 181 80.8 179.83 56.76 205.41 47.97 206.58 72.01"/><polygon class="cls-106" points="216.48 72.5 190.9 81.29 181 80.8 206.58 72.01 216.48 72.5"/><path class="cls-108" d="M448.47,334.26q5.86.3,8.84,3.94t3.32,11l1.19,24.42-9.9-.49-1.15-23.68a7.55,7.55,0,0,0-.62-3.1,1.92,1.92,0,0,0-1.7-.94c-1.54-.08-2.25,1.2-2.12,3.82l.23,4.71,2.85.14.48,10-2.85-.14.44,9-9.9-.49-1.17-24c-.23-4.66.71-8.21,2.82-10.68S444.42,334.06,448.47,334.26Z" transform="translate(-231 -300.37)"/></g><g class="cls-102"><polygon class="cls-106" points="259.02 98.77 233.44 107.56 225.88 107.19 251.46 98.4 259.02 98.77"/><polygon class="cls-105" points="233.61 90.3 208.03 99.09 207.86 95.46 233.44 86.67 233.61 90.3"/><polygon class="cls-105" points="233.72 92.46 208.14 101.25 208.03 99.09 233.61 90.3 233.72 92.46"/><polygon class="cls-105" points="233.97 97.53 208.38 106.32 208.14 101.25 233.72 92.46 233.97 97.53"/><polygon class="cls-106" points="241.55 97.91 215.97 106.7 208.38 106.32 233.97 97.53 241.55 97.91"/><polygon class="cls-108" points="258.49 87.91 259.02 98.77 251.46 98.4 252.77 125.34 242.86 124.85 241.55 97.91 233.97 97.53 233.72 92.46 233.61 90.3 233.44 86.67 258.49 87.91"/><polygon class="cls-105" points="242.86 124.85 217.28 133.64 215.97 106.7 241.55 97.91 242.86 124.85"/><polygon class="cls-106" points="252.77 125.34 227.19 134.13 217.28 133.64 242.86 124.85 252.77 125.34"/><g class="cls-102"><g class="cls-109"><g class="cls-102"><path class="cls-104" d="M457.88,398.38l-25.58,8.79c-.52-1.47-1.36-2.23-2.51-2.29a2.28,2.28,0,0,0-.81.1l25.58-8.79a2.28,2.28,0,0,1,.81-.1c1.15.06,2,.82,2.51,2.29" transform="translate(-231 -300.37)"/></g></g></g><polygon class="cls-106" points="226.26 114.19 200.68 122.98 197.39 122.82 222.97 114.03 226.26 114.19"/><g class="cls-102"><g class="cls-110"><g class="cls-102"><path class="cls-104" d="M443.4,400.31l-25.58,8.79q-.31-6.62,3.07-10.78a10.2,10.2,0,0,1,4.64-3.33l25.58-8.79a10.2,10.2,0,0,0-4.64,3.33q-3.39,4.16-3.07,10.78" transform="translate(-231 -300.37)"/></g></g></g><polygon class="cls-106" points="223.45 123.89 197.87 132.67 187.96 132.18 213.54 123.39 223.45 123.89"/><path class="cls-108" d="M455.32,385.65q5.3.27,9.29,5l.11,2.16-6.84,5.55c-.52-1.47-1.36-2.23-2.51-2.29-1.53-.07-2.24,1.1-2.12,3.49l.22,4.68,3.3.17.49,10.14L454,414.4l.48,9.86-9.91-.49-1.14-23.46q-.31-6.62,3.07-10.78A10.17,10.17,0,0,1,455.32,385.65Z" transform="translate(-231 -300.37)"/><polygon class="cls-105" points="213.54 123.39 187.96 132.18 186.82 108.72 212.4 99.94 213.54 123.39"/></g><g class="cls-102"><polygon class="cls-106" points="207.57 123.1 181.99 131.89 172.08 131.4 197.66 122.61 207.57 123.1"/><polygon class="cls-105" points="197.66 122.61 172.08 131.4 170.24 93.59 195.82 84.8 197.66 122.61"/><polygon class="cls-108" points="205.73 85.3 207.57 123.1 197.66 122.61 195.82 84.8 205.73 85.3"/></g><g class="cls-102"><g class="cls-102"><g class="cls-111"><g class="cls-102"><path class="cls-104" d="M417.06,396.1l-25.58,8.79a10.21,10.21,0,0,0-4.33-1.46,7.68,7.68,0,0,0-2.89.37L409.84,395a7.68,7.68,0,0,1,2.89-.37,10.21,10.21,0,0,1,4.33,1.46" transform="translate(-231 -300.37)"/></g></g></g><g class="cls-102"><g class="cls-112"><g class="cls-102"><path class="cls-104" d="M414.59,412.08,389,420.87a1.12,1.12,0,0,0,.82-1.22c0-.75-.53-1.14-1.52-1.18l25.58-8.79c1,.05,1.49.44,1.52,1.18a1.11,1.11,0,0,1-.82,1.22" transform="translate(-231 -300.37)"/></g></g></g><polygon class="cls-106" points="182.9 109.31 157.31 118.09 154.96 117.98 180.54 109.19 182.9 109.31"/><polygon class="cls-105" points="180.54 109.19 154.96 117.98 154.54 109.39 180.12 100.6 180.54 109.19"/><g class="cls-102"><g class="cls-113"><g class="cls-102"><path class="cls-104" d="M416.72,422.53l-25.58,8.79a11.66,11.66,0,0,1-4.4.57q-6.8-.33-11.8-6.41A23.86,23.86,0,0,1,369.51,411q-.4-8.42,4.13-13.77a13.81,13.81,0,0,1,6.08-4.26l25.58-8.79a13.87,13.87,0,0,0-6.08,4.26q-4.53,5.35-4.13,13.77a23.86,23.86,0,0,0,5.43,14.47q5,6.07,11.8,6.42a11.86,11.86,0,0,0,4.4-.58" transform="translate(-231 -300.37)"/></g></g></g><path class="cls-108" d="M411,383.45a16.85,16.85,0,0,1,5.51,1.4l.55,11.25a10.21,10.21,0,0,0-4.33-1.46,6.6,6.6,0,0,0-5.57,2.19,8.47,8.47,0,0,0-1.91,6.29,10.15,10.15,0,0,0,2.37,6.46,7.72,7.72,0,0,0,5.65,2.64c1.48.07,2.19-.39,2.14-1.36,0-.74-.53-1.13-1.52-1.18l-2.35-.12-.42-8.58,9.44.46a17,17,0,0,1,3.49,9.22,11.85,11.85,0,0,1-3.12,9.12,10.6,10.6,0,0,1-8.61,3.33q-6.79-.35-11.8-6.42a23.86,23.86,0,0,1-5.43-14.47q-.4-8.42,4.13-13.77A13.77,13.77,0,0,1,411,383.45Z" transform="translate(-231 -300.37)"/></g><g class="cls-102"><polygon class="cls-114" points="288.67 163.28 263.09 172.07 262.37 157.17 287.95 148.38 288.67 163.28"/><polygon class="cls-115" points="287.95 148.38 262.37 157.17 254.14 156.76 279.72 147.98 287.95 148.38"/><polygon class="cls-116" points="280.45 163.06 254.87 171.85 254.14 156.76 279.72 147.98 280.45 163.06"/><polygon class="cls-114" points="279.56 163.02 253.98 171.81 253.19 155.71 278.77 146.92 279.56 163.02"/><g class="cls-102"><g class="cls-117"><g class="cls-102"><path class="cls-118" d="M510.24,466.08l-25.58,8.79c.66-.22,1.3-.89,1.21-2.65l25.58-8.79c.09,1.76-.55,2.43-1.21,2.65" transform="translate(-231 -300.37)"/></g></g></g><g class="cls-102"><g class="cls-119"><g class="cls-102"><path class="cls-120" d="M509.91,465.12l-25.58,8.79c.4-.14.7-.57.65-1.73l25.58-8.79c.05,1.16-.25,1.59-.65,1.73" transform="translate(-231 -300.37)"/></g></g></g><g class="cls-102"><g class="cls-121"><g class="cls-102"><path class="cls-120" d="M513.23,475l-25.58,8.78A8.68,8.68,0,0,0,491.5,481a12,12,0,0,0,2.59-8.57l25.58-8.79a12,12,0,0,1-2.59,8.57,8.78,8.78,0,0,1-3.85,2.73" transform="translate(-231 -300.37)"/></g></g></g><polygon class="cls-114" points="276.12 162.84 250.54 171.63 249.81 156.55 275.38 147.76 276.12 162.84"/><g class="cls-102"><g class="cls-122"><g class="cls-102"><path class="cls-120" d="M510.24,466.08l-25.58,8.79a2.11,2.11,0,0,1-.8.11c-.81,0-2.2-.48-2.32-3l25.58-8.79c.12,2.49,1.51,2.93,2.32,3a2.11,2.11,0,0,0,.8-.11" transform="translate(-231 -300.37)"/></g></g></g><polygon class="cls-115" points="275.38 147.76 249.81 156.55 241.58 156.14 267.16 147.35 275.38 147.76"/><polygon class="cls-116" points="267.84 161.41 242.26 170.2 241.58 156.14 267.16 147.35 267.84 161.41"/><polygon class="cls-114" points="266.95 161.37 241.37 170.16 240.63 155.08 266.21 146.29 266.95 161.37"/><g class="cls-102"><g class="cls-123"><g class="cls-102"><path class="cls-118" d="M513.23,475l-25.58,8.78a8.86,8.86,0,0,1-3.37.45,10.65,10.65,0,0,1-8.22-4.51c-1.67-2.2-2.61-5.27-2.8-9.1l25.58-8.79c.19,3.84,1.13,6.9,2.8,9.1a10.65,10.65,0,0,0,8.22,4.51,9.06,9.06,0,0,0,3.37-.44" transform="translate(-231 -300.37)"/></g></g></g><path class="cls-124" d="M519,448.76l.72,14.89a12,12,0,0,1-2.59,8.57,8.45,8.45,0,0,1-7.22,3.17,10.65,10.65,0,0,1-8.22-4.51c-1.67-2.2-2.61-5.26-2.8-9.1l-.68-14.06,8.23.41.73,15.09c.12,2.49,1.51,2.93,2.32,3s2.13-.26,2-2.76l-.73-15.08Z" transform="translate(-231 -300.37)"/><g class="cls-102"><g class="cls-125"><g class="cls-102"><path class="cls-120" d="M513.57,475.92,488,484.71a9.76,9.76,0,0,1-3.66.49,11.6,11.6,0,0,1-8.93-4.91c-1.82-2.4-2.84-5.68-3-9.76L498,461.74c.19,4.08,1.21,7.36,3,9.76a11.6,11.6,0,0,0,8.93,4.91,9.76,9.76,0,0,0,3.66-.49" transform="translate(-231 -300.37)"/></g></g></g><path class="cls-126" d="M509.77,447.29l10,.5.78,15.9a13,13,0,0,1-2.82,9.27,9.22,9.22,0,0,1-7.84,3.45A11.6,11.6,0,0,1,501,471.5c-1.82-2.4-2.84-5.68-3-9.76l-.74-15.07,10,.49.78,16.1c.08,1.63.75,1.88,1.38,1.91s1.25-.16,1.17-1.78Zm9.9,16.36L519,448.76l-8.23-.41.73,15.08c.12,2.5-1.2,2.8-2,2.76s-2.2-.48-2.32-3l-.73-15.09-8.23-.41.68,14.06c.19,3.83,1.13,6.9,2.8,9.1a10.65,10.65,0,0,0,8.22,4.51,8.45,8.45,0,0,0,7.22-3.17,12,12,0,0,0,2.59-8.57" transform="translate(-231 -300.37)"/></g><g class="cls-102"><g class="cls-102"><g class="cls-127"><g class="cls-102"><path class="cls-120" d="M491,470l-25.58,8.79a13.12,13.12,0,0,0,3.14-9.65,15.91,15.91,0,0,0-4-9.94,12.31,12.31,0,0,0-8.75-4.5,11.42,11.42,0,0,0-4.35.57L477,446.49a11.42,11.42,0,0,1,4.35-.57,12.29,12.29,0,0,1,8.75,4.5,15.91,15.91,0,0,1,4,9.94A13.12,13.12,0,0,1,491,470" transform="translate(-231 -300.37)"/></g></g></g><g class="cls-102"><g class="cls-128"><g class="cls-102"><path class="cls-118" d="M484.71,463.21,459.13,472a4.54,4.54,0,0,0,1-3.24,5.47,5.47,0,0,0-1.31-3.35,4,4,0,0,0-2.9-1.51,3.55,3.55,0,0,0-1.27.17l25.59-8.79a3.47,3.47,0,0,1,1.26-.17,4,4,0,0,1,2.9,1.51,5.47,5.47,0,0,1,1.31,3.35,4.54,4.54,0,0,1-1,3.24" transform="translate(-231 -300.37)"/></g></g></g><g class="cls-102"><g class="cls-129"><g class="cls-102"><path class="cls-118" d="M484.71,463.21,459.13,472a4.54,4.54,0,0,0,1-3.24,5.47,5.47,0,0,0-1.31-3.35,4,4,0,0,0-2.9-1.51,3.55,3.55,0,0,0-1.27.17l25.59-8.79a3.47,3.47,0,0,1,1.26-.17,4,4,0,0,1,2.9,1.51,5.47,5.47,0,0,1,1.31,3.35,4.54,4.54,0,0,1-1,3.24" transform="translate(-231 -300.37)"/></g></g></g><g class="cls-102"><g class="cls-130"><g class="cls-102"><path class="cls-118" d="M484.71,463.21,459.13,472a4.54,4.54,0,0,0,1-3.24,5.47,5.47,0,0,0-1.31-3.35,4,4,0,0,0-2.9-1.51,3.55,3.55,0,0,0-1.27.17l25.59-8.79a3.47,3.47,0,0,1,1.26-.17,4,4,0,0,1,2.9,1.51,5.47,5.47,0,0,1,1.31,3.35,4.54,4.54,0,0,1-1,3.24" transform="translate(-231 -300.37)"/></g></g></g><g class="cls-102"><g class="cls-131"><g class="cls-102"><path class="cls-120" d="M486.45,473.11l-25.58,8.79a10.58,10.58,0,0,0,4.5-3.1L491,470a10.49,10.49,0,0,1-4.5,3.1" transform="translate(-231 -300.37)"/></g></g></g><g class="cls-102"><g class="cls-132"><g class="cls-102"><path class="cls-120" d="M484,462.46l-25.58,8.79a3.47,3.47,0,0,0,.78-2.53,4.2,4.2,0,0,0-1-2.64,3,3,0,0,0-2.24-1.16,2.43,2.43,0,0,0-1,.13l25.58-8.79a2.43,2.43,0,0,1,1-.13,3.08,3.08,0,0,1,2.24,1.16,4.2,4.2,0,0,1,1,2.64,3.47,3.47,0,0,1-.78,2.53" transform="translate(-231 -300.37)"/></g></g></g><g class="cls-102"><g class="cls-133"><g class="cls-102"><path class="cls-118" d="M484.71,463.21,459.13,472a4.54,4.54,0,0,0,1-3.24,5.47,5.47,0,0,0-1.31-3.35,4,4,0,0,0-2.9-1.51,3.55,3.55,0,0,0-1.27.17l25.59-8.79a3.47,3.47,0,0,1,1.26-.17,4,4,0,0,1,2.9,1.51,5.47,5.47,0,0,1,1.31,3.35,4.54,4.54,0,0,1-1,3.24" transform="translate(-231 -300.37)"/></g></g></g><g class="cls-102"><g class="cls-134"><g class="cls-102"><path class="cls-118" d="M483.21,464.27l-25.58,8.79a3.4,3.4,0,0,0,1.5-1.06l25.58-8.79a3.4,3.4,0,0,1-1.5,1.06" transform="translate(-231 -300.37)"/></g></g></g><g class="cls-102"><g class="cls-135"><g class="cls-102"><path class="cls-120" d="M482.87,463.3l-25.58,8.79a2.64,2.64,0,0,0,1.16-.84L484,462.46a2.64,2.64,0,0,1-1.16.84" transform="translate(-231 -300.37)"/></g></g></g><g class="cls-102"><g class="cls-136"><g class="cls-102"><path class="cls-118" d="M486.45,473.11l-25.58,8.79a10.59,10.59,0,0,1-4,.54,12.6,12.6,0,0,1-8.94-4.52,15.72,15.72,0,0,1-4.1-10,13,13,0,0,1,3.14-9.67,10.4,10.4,0,0,1,4.42-3L477,446.49a10.4,10.4,0,0,0-4.42,3,13,13,0,0,0-3.14,9.67,15.77,15.77,0,0,0,4.1,10,12.62,12.62,0,0,0,8.94,4.51,10.59,10.59,0,0,0,4-.54" transform="translate(-231 -300.37)"/></g></g></g><g class="cls-102"><g class="cls-137"><g class="cls-102"><path class="cls-120" d="M483.21,464.27l-25.58,8.79a3.44,3.44,0,0,1-1.25.17,4,4,0,0,1-2.87-1.51,5.37,5.37,0,0,1-1.32-3.35,4.47,4.47,0,0,1,1-3.24,3.32,3.32,0,0,1,1.47-1.06l25.59-8.79a3.29,3.29,0,0,0-1.48,1.06,4.49,4.49,0,0,0-1,3.24,5.35,5.35,0,0,0,1.32,3.35,4,4,0,0,0,2.87,1.51,3.24,3.24,0,0,0,1.25-.17" transform="translate(-231 -300.37)"/></g></g></g><g class="cls-102"><g class="cls-138"><g class="cls-102"><path class="cls-118" d="M486.45,473.11l-25.58,8.79a10.59,10.59,0,0,1-4,.54,12.6,12.6,0,0,1-8.94-4.52,15.72,15.72,0,0,1-4.1-10,13,13,0,0,1,3.14-9.67,10.4,10.4,0,0,1,4.42-3L477,446.49a10.4,10.4,0,0,0-4.42,3,13,13,0,0,0-3.14,9.67,15.77,15.77,0,0,0,4.1,10,12.62,12.62,0,0,0,8.94,4.51,10.59,10.59,0,0,0,4-.54" transform="translate(-231 -300.37)"/></g></g></g><g class="cls-102"><g class="cls-139"><g class="cls-102"><path class="cls-118" d="M486.45,473.11l-25.58,8.79a10.59,10.59,0,0,1-4,.54,12.6,12.6,0,0,1-8.94-4.52,15.72,15.72,0,0,1-4.1-10,13,13,0,0,1,3.14-9.67,10.4,10.4,0,0,1,4.42-3L477,446.49a10.4,10.4,0,0,0-4.42,3,13,13,0,0,0-3.14,9.67,15.77,15.77,0,0,0,4.1,10,12.62,12.62,0,0,0,8.94,4.51,10.59,10.59,0,0,0,4-.54" transform="translate(-231 -300.37)"/></g></g></g><path class="cls-126" d="M490.64,449.73A17,17,0,0,1,495,460.41a14,14,0,0,1-3.37,10.35,10.88,10.88,0,0,1-9.13,3.9,13.55,13.55,0,0,1-9.58-4.83,16.88,16.88,0,0,1-4.4-10.74,13.88,13.88,0,0,1,3.37-10.37,11.27,11.27,0,0,1,9.38-3.81A13.2,13.2,0,0,1,490.64,449.73ZM491,470a13.12,13.12,0,0,0,3.14-9.65,15.91,15.91,0,0,0-4-9.94,12.29,12.29,0,0,0-8.75-4.5,10.54,10.54,0,0,0-8.77,3.55,13,13,0,0,0-3.14,9.67,15.77,15.77,0,0,0,4.1,10,12.62,12.62,0,0,0,8.94,4.51A10.22,10.22,0,0,0,491,470" transform="translate(-231 -300.37)"/><path class="cls-124" d="M490.05,450.42a15.91,15.91,0,0,1,4,9.94A13.12,13.12,0,0,1,491,470a10.22,10.22,0,0,1-8.52,3.64,12.62,12.62,0,0,1-8.94-4.51,15.77,15.77,0,0,1-4.1-10,13,13,0,0,1,3.14-9.67,10.54,10.54,0,0,1,8.77-3.55A12.29,12.29,0,0,1,490.05,450.42Zm-5.34,12.79a4.54,4.54,0,0,0,1-3.24,5.47,5.47,0,0,0-1.31-3.35,4,4,0,0,0-2.9-1.51,3.21,3.21,0,0,0-2.74,1.23,4.49,4.49,0,0,0-1,3.24,5.35,5.35,0,0,0,1.32,3.35,4,4,0,0,0,2.87,1.51,3.28,3.28,0,0,0,2.75-1.23" transform="translate(-231 -300.37)"/><path class="cls-126" d="M484.71,463.21a4.54,4.54,0,0,0,1-3.24,5.47,5.47,0,0,0-1.31-3.35,4,4,0,0,0-2.9-1.51,3.21,3.21,0,0,0-2.74,1.23,4.49,4.49,0,0,0-1,3.24,5.35,5.35,0,0,0,1.32,3.35,4,4,0,0,0,2.87,1.51A3.28,3.28,0,0,0,484.71,463.21Zm-2.8.21a3,3,0,0,1-2.21-1.17,4.18,4.18,0,0,1-1-2.63,3.5,3.5,0,0,1,.78-2.55,2.45,2.45,0,0,1,2.11-.94,3.08,3.08,0,0,1,2.24,1.16,4.2,4.2,0,0,1,1,2.64,3.47,3.47,0,0,1-.78,2.53,2.44,2.44,0,0,1-2.12,1" transform="translate(-231 -300.37)"/><g class="cls-102"><g class="cls-140"><g class="cls-102"><path class="cls-118" d="M486.45,473.11l-25.58,8.79a10.59,10.59,0,0,1-4,.54,12.6,12.6,0,0,1-8.94-4.52,15.72,15.72,0,0,1-4.1-10,13,13,0,0,1,3.14-9.67,10.4,10.4,0,0,1,4.42-3L477,446.49a10.4,10.4,0,0,0-4.42,3,13,13,0,0,0-3.14,9.67,15.77,15.77,0,0,0,4.1,10,12.62,12.62,0,0,0,8.94,4.51,10.59,10.59,0,0,0,4-.54" transform="translate(-231 -300.37)"/></g></g></g><g class="cls-102"><g class="cls-141"><g class="cls-102"><path class="cls-120" d="M486.8,474.09l-25.58,8.79a11.34,11.34,0,0,1-4.32.57,13.55,13.55,0,0,1-9.58-4.83,16.88,16.88,0,0,1-4.4-10.74,13.88,13.88,0,0,1,3.37-10.37A11.23,11.23,0,0,1,451,454.3l25.58-8.79a11.23,11.23,0,0,0-4.75,3.21,13.88,13.88,0,0,0-3.37,10.37,16.88,16.88,0,0,0,4.4,10.74,13.55,13.55,0,0,0,9.58,4.83,11.34,11.34,0,0,0,4.32-.57" transform="translate(-231 -300.37)"/></g></g></g><polygon class="cls-115" points="236.5 135.28 210.92 144.07 202.11 143.63 227.69 134.84 236.5 135.28"/><polygon class="cls-142" points="228.24 150.99 202.66 159.77 210.92 144.07 236.5 135.28 228.24 150.99"/><polygon class="cls-143" points="223.24 142.81 197.66 151.6 202.11 143.63 227.69 134.84 223.24 142.81"/><polygon class="cls-142" points="223.17 140.95 197.59 149.74 201.59 142.59 227.17 133.8 223.17 140.95"/><polygon class="cls-120" points="223.24 142.81 197.66 151.6 192.72 143.17 218.3 134.38 223.24 142.81"/><polygon class="cls-114" points="229.24 171.62 203.66 180.41 202.66 159.77 228.24 150.99 229.24 171.62"/><polygon class="cls-115" points="218.3 134.38 192.72 143.17 183.75 142.72 209.32 133.93 218.3 134.38"/><polygon class="cls-144" points="219.23 150.54 193.65 159.33 183.75 142.72 209.32 133.93 219.23 150.54"/><polygon class="cls-120" points="218.35 150.79 192.77 159.58 182.05 141.62 207.63 132.84 218.35 150.79"/><polygon class="cls-116" points="220.23 171.17 194.65 179.96 193.65 159.33 219.23 150.54 220.23 171.17"/><polygon class="cls-124" points="236.5 135.28 228.24 150.99 229.24 171.62 220.23 171.17 219.23 150.54 209.32 133.93 218.3 134.38 223.24 142.81 227.69 134.84 236.5 135.28"/><polygon class="cls-145" points="229.24 171.62 203.66 180.41 194.65 179.96 220.23 171.17 229.24 171.62"/><polygon class="cls-115" points="230.18 172.68 204.6 181.47 193.81 180.93 219.39 172.14 230.18 172.68"/><polygon class="cls-114" points="219.39 172.14 193.81 180.93 192.77 159.58 218.35 150.79 219.39 172.14"/><path class="cls-126" d="M458.17,434.18l10.91.54-8.93,17,1,21.35-10.79-.54-1-21.34-10.72-18,11.12.55,4.42,7.56Zm1.07,17.18,8.26-15.71-8.81-.44-4.45,8-4.94-8.43-9-.45,9.91,16.61,1,20.63,9,.45-1-20.63" transform="translate(-231 -300.37)"/></g><g class="cls-102"><polygon class="cls-114" points="198.5 153.02 172.92 161.81 172.44 151.98 198.02 143.19 198.5 153.02"/><polygon class="cls-115" points="199.48 154.75 173.9 163.54 173.21 163.07 198.79 154.28 199.48 154.75"/><g class="cls-102"><g class="cls-146"><g class="cls-102"><path class="cls-118" d="M429.5,453.39l-25.58,8.79a3.28,3.28,0,0,0-1.3-.36,2.42,2.42,0,0,0-1,.12l25.58-8.79a2.42,2.42,0,0,1,1-.12,3.45,3.45,0,0,1,1.3.36" transform="translate(-231 -300.37)"/></g></g></g><g class="cls-102"><g class="cls-147"><g class="cls-102"><path class="cls-120" d="M429.79,454.66l-25.58,8.78a3.24,3.24,0,0,0-1.54-.61,1.76,1.76,0,0,0-.68.08l25.58-8.79a1.76,1.76,0,0,1,.68-.08,3.17,3.17,0,0,1,1.54.62" transform="translate(-231 -300.37)"/></g></g></g><g class="cls-102"><g class="cls-148"><g class="cls-102"><path class="cls-120" d="M429,443.56l-25.58,8.79a15.84,15.84,0,0,0-2.34-.35,9.43,9.43,0,0,0-3.6.46l25.58-8.79a9.43,9.43,0,0,1,3.6-.46,15.84,15.84,0,0,1,2.34.35" transform="translate(-231 -300.37)"/></g></g></g><g class="cls-102"><g class="cls-149"><g class="cls-102"><path class="cls-120" d="M425.5,457.71l-25.58,8.79c-.15-3.05.72-4.21,1.74-4.56l25.58-8.79c-1,.35-1.89,1.51-1.74,4.56" transform="translate(-231 -300.37)"/></g></g></g><polygon class="cls-114" points="195.12 169.93 169.53 178.71 168.92 166.13 194.5 157.34 195.12 169.93"/><g class="cls-102"><g class="cls-150"><g class="cls-102"><path class="cls-118" d="M417.18,455.31,391.6,464.1c-.19-3.84.58-6.9,2.31-9.06a7.57,7.57,0,0,1,3.59-2.58l25.58-8.79a7.64,7.64,0,0,0-3.59,2.58c-1.73,2.16-2.5,5.22-2.31,9.06" transform="translate(-231 -300.37)"/></g></g></g><g class="cls-102"><g class="cls-151"><g class="cls-102"><path class="cls-120" d="M416.28,455.26l-25.58,8.79c-.2-4.1.65-7.38,2.52-9.74a8.44,8.44,0,0,1,3.93-2.83l25.58-8.79a8.44,8.44,0,0,0-3.93,2.83c-1.87,2.36-2.72,5.64-2.52,9.74" transform="translate(-231 -300.37)"/></g></g></g><polygon class="cls-145" points="195.12 169.93 169.53 178.71 161.31 178.31 186.88 169.52 195.12 169.93"/><path class="cls-124" d="M426.68,443.21a15.84,15.84,0,0,1,2.34.35l.48,9.83a3.45,3.45,0,0,0-1.3-.36c-1.34-.07-2.89.68-2.7,4.68l.61,12.59-8.22-.41-.71-14.58c-.19-3.84.58-6.9,2.31-9.06A8.12,8.12,0,0,1,426.68,443.21Z" transform="translate(-231 -300.37)"/><polygon class="cls-116" points="186.88 169.52 161.31 178.31 160.6 163.72 186.18 154.94 186.88 169.52"/><polygon class="cls-115" points="196.06 170.98 170.48 179.77 160.46 179.28 186.04 170.49 196.06 170.98"/><path class="cls-126" d="M429.49,442.65l.38.09.61,12.38-.69-.46a3.17,3.17,0,0,0-1.54-.62c-.88,0-2,.29-1.85,3.71l.66,13.6-10-.49-.76-15.6c-.2-4.1.65-7.38,2.52-9.74a8.84,8.84,0,0,1,7.83-3.32A17.36,17.36,0,0,1,429.49,442.65Zm0,10.74-.48-9.83a15.84,15.84,0,0,0-2.34-.35,8.12,8.12,0,0,0-7.19,3c-1.73,2.16-2.5,5.22-2.31,9.06l.71,14.58,8.22.41-.61-12.59c-.19-4,1.36-4.75,2.7-4.68a3.45,3.45,0,0,1,1.3.36" transform="translate(-231 -300.37)"/><polygon class="cls-114" points="186.04 170.49 160.46 179.28 159.7 163.68 185.28 154.89 186.04 170.49"/></g><g class="cls-102"><g class="cls-102"><g class="cls-152"><g class="cls-102"><path class="cls-120" d="M409.4,466l-25.58,8.79a13,13,0,0,0,3.13-9.64,15.8,15.8,0,0,0-4-9.95,12.33,12.33,0,0,0-8.75-4.5,11.8,11.8,0,0,0-4.34.57l25.58-8.79a11.8,11.8,0,0,1,4.34-.57,12.31,12.31,0,0,1,8.75,4.51,15.76,15.76,0,0,1,4,9.94A13,13,0,0,1,409.4,466" transform="translate(-231 -300.37)"/></g></g></g><g class="cls-102"><g class="cls-153"><g class="cls-102"><path class="cls-118" d="M403.15,459.16,377.57,468a4.52,4.52,0,0,0,1-3.23,5.36,5.36,0,0,0-1.31-3.36,4,4,0,0,0-2.9-1.5,3.13,3.13,0,0,0-1.27.17l25.58-8.79a3.32,3.32,0,0,1,1.27-.17,4,4,0,0,1,2.9,1.5,5.36,5.36,0,0,1,1.31,3.36,4.52,4.52,0,0,1-1,3.23" transform="translate(-231 -300.37)"/></g></g></g><g class="cls-102"><g class="cls-154"><g class="cls-102"><path class="cls-118" d="M403.15,459.16,377.57,468a4.52,4.52,0,0,0,1-3.23,5.36,5.36,0,0,0-1.31-3.36,4,4,0,0,0-2.9-1.5,3.13,3.13,0,0,0-1.27.17l25.58-8.79a3.32,3.32,0,0,1,1.27-.17,4,4,0,0,1,2.9,1.5,5.36,5.36,0,0,1,1.31,3.36,4.52,4.52,0,0,1-1,3.23" transform="translate(-231 -300.37)"/></g></g></g><g class="cls-102"><g class="cls-155"><g class="cls-102"><path class="cls-118" d="M403.15,459.16,377.57,468a4.52,4.52,0,0,0,1-3.23,5.36,5.36,0,0,0-1.31-3.36,4,4,0,0,0-2.9-1.5,3.13,3.13,0,0,0-1.27.17l25.58-8.79a3.32,3.32,0,0,1,1.27-.17,4,4,0,0,1,2.9,1.5,5.36,5.36,0,0,1,1.31,3.36,4.52,4.52,0,0,1-1,3.23" transform="translate(-231 -300.37)"/></g></g></g><g class="cls-102"><g class="cls-156"><g class="cls-102"><path class="cls-120" d="M404.9,469.06l-25.58,8.79a10.43,10.43,0,0,0,4.5-3.1L409.4,466a10.43,10.43,0,0,1-4.5,3.1" transform="translate(-231 -300.37)"/></g></g></g><g class="cls-102"><g class="cls-157"><g class="cls-102"><path class="cls-120" d="M402.48,458.42l-25.58,8.79a3.5,3.5,0,0,0,.79-2.54,4.21,4.21,0,0,0-1-2.64,3.1,3.1,0,0,0-2.24-1.16,2.54,2.54,0,0,0-1,.13L399,452.21a2.54,2.54,0,0,1,1-.13,3.1,3.1,0,0,1,2.24,1.16,4.23,4.23,0,0,1,1,2.64,3.5,3.5,0,0,1-.79,2.54" transform="translate(-231 -300.37)"/></g></g></g><g class="cls-102"><g class="cls-158"><g class="cls-102"><path class="cls-118" d="M403.15,459.16,377.57,468a4.52,4.52,0,0,0,1-3.23,5.36,5.36,0,0,0-1.31-3.36,4,4,0,0,0-2.9-1.5,3.13,3.13,0,0,0-1.27.17l25.58-8.79a3.32,3.32,0,0,1,1.27-.17,4,4,0,0,1,2.9,1.5,5.36,5.36,0,0,1,1.31,3.36,4.52,4.52,0,0,1-1,3.23" transform="translate(-231 -300.37)"/></g></g></g><g class="cls-102"><g class="cls-159"><g class="cls-102"><path class="cls-120" d="M401.32,459.25,375.74,468a2.64,2.64,0,0,0,1.16-.83l25.58-8.79a2.56,2.56,0,0,1-1.16.83" transform="translate(-231 -300.37)"/></g></g></g><g class="cls-102"><g class="cls-160"><g class="cls-102"><path class="cls-118" d="M401.66,460.22,376.08,469a3.38,3.38,0,0,0,1.49-1.06l25.58-8.79a3.38,3.38,0,0,1-1.49,1.06" transform="translate(-231 -300.37)"/></g></g></g><g class="cls-102"><g class="cls-161"><g class="cls-102"><path class="cls-118" d="M404.9,469.06l-25.58,8.79a10.65,10.65,0,0,1-4,.54,12.64,12.64,0,0,1-8.93-4.51,15.77,15.77,0,0,1-4.1-10,13,13,0,0,1,3.14-9.67,10.56,10.56,0,0,1,4.42-3l25.58-8.79a10.56,10.56,0,0,0-4.42,3,13,13,0,0,0-3.14,9.67,15.77,15.77,0,0,0,4.1,10,12.64,12.64,0,0,0,8.93,4.51,10.65,10.65,0,0,0,4-.54" transform="translate(-231 -300.37)"/></g></g></g><g class="cls-102"><g class="cls-162"><g class="cls-102"><path class="cls-120" d="M401.66,460.22,376.08,469a3.26,3.26,0,0,1-1.26.17,4,4,0,0,1-2.86-1.51,5.42,5.42,0,0,1-1.33-3.35,4.53,4.53,0,0,1,1-3.24A3.32,3.32,0,0,1,373.1,460l25.58-8.79a3.32,3.32,0,0,0-1.48,1.05,4.55,4.55,0,0,0-1,3.24,5.42,5.42,0,0,0,1.33,3.35,4,4,0,0,0,2.86,1.51,3.26,3.26,0,0,0,1.26-.17" transform="translate(-231 -300.37)"/></g></g></g><path class="cls-126" d="M400,451.07a4,4,0,0,1,2.9,1.5,5.36,5.36,0,0,1,1.31,3.36,4.52,4.52,0,0,1-1,3.23,3.21,3.21,0,0,1-2.75,1.23,4,4,0,0,1-2.86-1.51,5.42,5.42,0,0,1-1.33-3.35,4.55,4.55,0,0,1,1-3.24A3.19,3.19,0,0,1,400,451.07Zm2.53,7.35a3.5,3.5,0,0,0,.79-2.54,4.23,4.23,0,0,0-1-2.64,3.1,3.1,0,0,0-2.24-1.16,2.46,2.46,0,0,0-2.12.95,3.51,3.51,0,0,0-.77,2.55,4.2,4.2,0,0,0,1,2.62,3.05,3.05,0,0,0,2.21,1.18,2.47,2.47,0,0,0,2.13-1" transform="translate(-231 -300.37)"/><g class="cls-102"><g class="cls-163"><g class="cls-102"><path class="cls-118" d="M404.9,469.06l-25.58,8.79a10.65,10.65,0,0,1-4,.54,12.64,12.64,0,0,1-8.93-4.51,15.77,15.77,0,0,1-4.1-10,13,13,0,0,1,3.14-9.67,10.56,10.56,0,0,1,4.42-3l25.58-8.79a10.56,10.56,0,0,0-4.42,3,13,13,0,0,0-3.14,9.67,15.77,15.77,0,0,0,4.1,10,12.64,12.64,0,0,0,8.93,4.51,10.65,10.65,0,0,0,4-.54" transform="translate(-231 -300.37)"/></g></g></g><g class="cls-102"><g class="cls-164"><g class="cls-102"><path class="cls-118" d="M404.9,469.06l-25.58,8.79a10.65,10.65,0,0,1-4,.54,12.64,12.64,0,0,1-8.93-4.51,15.77,15.77,0,0,1-4.1-10,13,13,0,0,1,3.14-9.67,10.56,10.56,0,0,1,4.42-3l25.58-8.79a10.56,10.56,0,0,0-4.42,3,13,13,0,0,0-3.14,9.67,15.77,15.77,0,0,0,4.1,10,12.64,12.64,0,0,0,8.93,4.51,10.65,10.65,0,0,0,4-.54" transform="translate(-231 -300.37)"/></g></g></g><g class="cls-102"><g class="cls-165"><g class="cls-102"><path class="cls-118" d="M404.9,469.06l-25.58,8.79a10.65,10.65,0,0,1-4,.54,12.64,12.64,0,0,1-8.93-4.51,15.77,15.77,0,0,1-4.1-10,13,13,0,0,1,3.14-9.67,10.56,10.56,0,0,1,4.42-3l25.58-8.79a10.56,10.56,0,0,0-4.42,3,13,13,0,0,0-3.14,9.67,15.77,15.77,0,0,0,4.1,10,12.64,12.64,0,0,0,8.93,4.51,10.65,10.65,0,0,0,4-.54" transform="translate(-231 -300.37)"/></g></g></g><path class="cls-124" d="M408.49,446.38a15.76,15.76,0,0,1,4,9.94A13,13,0,0,1,409.4,466a10.2,10.2,0,0,1-8.53,3.64,12.64,12.64,0,0,1-8.93-4.51,15.77,15.77,0,0,1-4.1-10,13,13,0,0,1,3.14-9.67,10.58,10.58,0,0,1,8.76-3.55A12.31,12.31,0,0,1,408.49,446.38Zm-5.34,12.78a4.52,4.52,0,0,0,1-3.23,5.36,5.36,0,0,0-1.31-3.36,4,4,0,0,0-2.9-1.5,3.19,3.19,0,0,0-2.75,1.22,4.55,4.55,0,0,0-1,3.24,5.42,5.42,0,0,0,1.33,3.35,4,4,0,0,0,2.86,1.51,3.21,3.21,0,0,0,2.75-1.23" transform="translate(-231 -300.37)"/><path class="cls-126" d="M409.09,445.68a17,17,0,0,1,4.34,10.68,14.08,14.08,0,0,1-3.36,10.36,11,11,0,0,1-9.15,3.89,13.49,13.49,0,0,1-9.57-4.83,16.94,16.94,0,0,1-4.41-10.73,14,14,0,0,1,3.38-10.38,11.3,11.3,0,0,1,9.37-3.81A13.23,13.23,0,0,1,409.09,445.68ZM409.4,466a13,13,0,0,0,3.13-9.64,15.76,15.76,0,0,0-4-9.94,12.31,12.31,0,0,0-8.75-4.51,10.58,10.58,0,0,0-8.76,3.55,13,13,0,0,0-3.14,9.67,15.77,15.77,0,0,0,4.1,10,12.64,12.64,0,0,0,8.93,4.51A10.2,10.2,0,0,0,409.4,466" transform="translate(-231 -300.37)"/><g class="cls-102"><g class="cls-166"><g class="cls-102"><path class="cls-120" d="M405.25,470l-25.58,8.79a11.4,11.4,0,0,1-4.33.57,13.53,13.53,0,0,1-9.57-4.83,16.94,16.94,0,0,1-4.41-10.73,14,14,0,0,1,3.38-10.38,11.17,11.17,0,0,1,4.75-3.2l25.58-8.79a11.17,11.17,0,0,0-4.75,3.2,14,14,0,0,0-3.38,10.38,16.94,16.94,0,0,0,4.41,10.73,13.49,13.49,0,0,0,9.57,4.83,11.4,11.4,0,0,0,4.33-.57" transform="translate(-231 -300.37)"/></g></g></g><polygon class="cls-167" points="148 141.26 122.42 150.05 129.41 144.37 154.99 135.58 148 141.26"/><polygon class="cls-168" points="147.66 142.84 122.08 151.63 121.85 150.98 147.43 142.19 147.66 142.84"/><g class="cls-102"><g class="cls-169"><g class="cls-102"><path class="cls-120" d="M386,436l-25.58,8.79c-2.72-3.64-6-5.58-9.69-5.76a10.7,10.7,0,0,0-4.05.52l25.58-8.78a10.5,10.5,0,0,1,4.05-.53c3.72.18,7,2.12,9.69,5.76" transform="translate(-231 -300.37)"/></g></g></g><g class="cls-102"><g class="cls-170"><g class="cls-102"><path class="cls-118" d="M379,441.63l-25.58,8.79a3.16,3.16,0,0,0-2.7-2,2.62,2.62,0,0,0-1,.13l25.58-8.79a2.42,2.42,0,0,1,1-.12,3.13,3.13,0,0,1,2.7,2" transform="translate(-231 -300.37)"/></g></g></g><g class="cls-102"><g class="cls-171"><g class="cls-102"><path class="cls-120" d="M378.43,442.56l-25.58,8.79c-.45-1.27-1.12-1.88-2.08-1.93a1.67,1.67,0,0,0-.66.08l25.58-8.79a1.67,1.67,0,0,1,.66-.08c1,.05,1.63.67,2.08,1.93" transform="translate(-231 -300.37)"/></g></g></g><g class="cls-102"><g class="cls-172"><g class="cls-102"><path class="cls-120" d="M373.76,443.58l-25.58,8.79c-.13-2.53.65-3.53,1.58-3.84l25.58-8.79c-.92.31-1.71,1.31-1.58,3.84" transform="translate(-231 -300.37)"/></g></g></g><polygon class="cls-114" points="146.75 157.69 121.17 166.48 120.72 157.36 146.3 148.57 146.75 157.69"/><polygon class="cls-115" points="146.3 148.57 120.72 157.36 117.43 157.19 143.01 148.41 146.3 148.57"/><polygon class="cls-114" points="143.01 148.41 117.43 157.19 117.18 152 142.76 143.21 143.01 148.41"/><polygon class="cls-115" points="147.69 158.75 122.11 167.54 118.82 167.38 144.4 158.59 147.69 158.75"/><polygon class="cls-145" points="146.75 157.69 121.17 166.48 117.88 166.32 143.46 157.53 146.75 157.69"/><polygon class="cls-114" points="143.93 167.38 118.35 176.17 117.88 166.32 143.46 157.53 143.93 167.38"/><g class="cls-102"><g class="cls-173"><g class="cls-102"><path class="cls-118" d="M364.81,444.36l-25.58,8.79c-.21-4.26.78-7.77,3-10.43a9.85,9.85,0,0,1,4.48-3.21l25.58-8.79a9.85,9.85,0,0,0-4.48,3.21c-2.18,2.66-3.17,6.17-3,10.43" transform="translate(-231 -300.37)"/></g></g></g><g class="cls-102"><g class="cls-174"><g class="cls-102"><path class="cls-120" d="M363.91,444.32l-25.58,8.79c-.22-4.53.85-8.27,3.17-11.13a10.71,10.71,0,0,1,4.82-3.45l25.58-8.79a10.71,10.71,0,0,0-4.82,3.45c-2.32,2.86-3.39,6.6-3.17,11.13" transform="translate(-231 -300.37)"/></g></g></g><polygon class="cls-116" points="134.92 166.94 109.34 175.73 108.23 152.78 133.81 143.99 134.92 166.94"/><polygon class="cls-145" points="143.93 167.38 118.35 176.17 109.34 175.73 134.92 166.94 143.93 167.38"/><path class="cls-124" d="M376.3,430.19c3.72.18,7,2.12,9.69,5.76l-7,5.68a3.13,3.13,0,0,0-2.7-2c-1.25-.07-2.71.57-2.54,4l.25,5.2,3.29.16.45,9.12-3.3-.16.48,9.86-9-.45-1.11-22.95c-.21-4.26.78-7.77,3-10.43A9.8,9.8,0,0,1,376.3,430.19Z" transform="translate(-231 -300.37)"/><polygon class="cls-115" points="144.88 168.44 119.3 177.23 108.5 176.7 134.08 167.91 144.88 168.44"/><path class="cls-126" d="M387,435.79l.3.42-8.62,7-.23-.65c-.45-1.26-1.12-1.88-2.08-1.93-.79,0-1.83.23-1.7,3l.21,4.18,3.29.16.54,11.15L375.4,459l.48,9.86-10.8-.54-1.17-24c-.22-4.53.85-8.27,3.17-11.13a10.58,10.58,0,0,1,9.17-4C380.39,429.38,384,431.6,387,435.79Zm-8,5.84,7-5.68c-2.72-3.64-6-5.58-9.69-5.76a9.8,9.8,0,0,0-8.53,3.74c-2.18,2.66-3.17,6.17-3,10.43l1.11,22.95,9,.45-.48-9.86,3.3.16-.45-9.12-3.29-.16-.25-5.2c-.17-3.39,1.29-4,2.54-4a3.13,3.13,0,0,1,2.7,2" transform="translate(-231 -300.37)"/><polygon class="cls-114" points="134.08 167.91 108.5 176.7 107.33 152.74 132.91 143.95 134.08 167.91"/></g></svg>